<?xml version="1.0" encoding="UTF-8" standalone="no"?>
<!DOCTYPE svg PUBLIC "-//W3C//DTD SVG 1.1//EN"
 "http://www.w3.org/Graphics/SVG/1.1/DTD/svg11.dtd">
<!-- Generated by graphviz version 2.43.0 (0)
 -->
<!-- Title: G Pages: 1 -->
<svg width="1755pt" height="621pt"
 viewBox="0.00 0.00 1754.82 621.32" xmlns="http://www.w3.org/2000/svg" xmlns:xlink="http://www.w3.org/1999/xlink">
<g id="graph0" class="graph" transform="scale(1 1) rotate(0) translate(20.16 601.16)">
<title>G</title>
<polygon fill="white" stroke="transparent" points="-20.16,20.16 -20.16,-601.16 1734.66,-601.16 1734.66,20.16 -20.16,20.16"/>
<text text-anchor="middle" x="434" y="-561" font-family="NanumBarunGothic" font-size="20.00">본 연구 데이터셋 전체 계보: 파일 형식·저장 산출물·실험 역할</text>
<text text-anchor="middle" x="434" y="-539" font-family="NanumBarunGothic" font-size="20.00">2026&#45;07&#45;15 디스크 실측 | Datasets &#45;&gt; /hdd2/KIISE_datasociety/Datasets | 상세도 8장 별도 제공</text>
<!-- d522&#45;&gt;dsin -->
<!-- d522&#45;&gt;dvru -->
<!-- dsin&#45;&gt;dmeva -->
<!-- dmeva&#45;&gt;dmiris -->
<!-- dvru&#45;&gt;dint -->
<!-- dint&#45;&gt;duca -->
<!-- duca&#45;&gt;dmulti -->
<!-- dmulti&#45;&gt;legend -->
<!-- d522 -->
<g id="node1" class="node">
<title>d522</title>
<polygon fill="#243b53" stroke="transparent" points="1.5,-483 1.5,-528 356.5,-528 356.5,-483 1.5,-483"/>
<polygon fill="none" stroke="#526476" points="1.5,-483 1.5,-528 356.5,-528 356.5,-483 1.5,-483"/>
<text text-anchor="start" x="11.5" y="-507" font-family="NanumBarunGothic" font-weight="bold" font-size="15.00" fill="white">AI Hub 522 교차로</text>
<text text-anchor="start" x="12.5" y="-496" font-family="NanumBarunGothic" font-size="10.00" fill="#d9e2ec">헤드라인: 검색 + 색인 + 답변</text>
<polygon fill="#e8f3fa" stroke="transparent" points="1.5,-437 1.5,-483 100.5,-483 100.5,-437 1.5,-437"/>
<polygon fill="none" stroke="#526476" points="1.5,-437 1.5,-483 100.5,-483 100.5,-437 1.5,-437"/>
<text text-anchor="start" x="38" y="-457.3" font-family="NanumBarunGothic" font-weight="bold" font-size="14.00">원본</text>
<polygon fill="none" stroke="#526476" points="100.5,-437 100.5,-483 356.5,-483 356.5,-437 100.5,-437"/>
<text text-anchor="start" x="108.5" y="-463.8" font-family="NanumBarunGothic" font-size="14.00">198G archive</text>
<text text-anchor="start" x="108.5" y="-448.8" font-family="NanumBarunGothic" font-size="14.00">JPG 프레임 + 센서 CSV + CVAT XML</text>
<polygon fill="#f5f7fa" stroke="transparent" points="1.5,-376 1.5,-437 100.5,-437 100.5,-376 1.5,-376"/>
<polygon fill="none" stroke="#526476" points="1.5,-376 1.5,-437 100.5,-437 100.5,-376 1.5,-376"/>
<text text-anchor="start" x="38" y="-403.8" font-family="NanumBarunGothic" font-weight="bold" font-size="14.00">저장</text>
<polygon fill="none" stroke="#526476" points="100.5,-376 100.5,-437 356.5,-437 356.5,-376 100.5,-376"/>
<text text-anchor="start" x="108.5" y="-417.8" font-family="NanumBarunGothic" font-size="14.00">processed 142G</text>
<text text-anchor="start" x="108.5" y="-402.8" font-family="NanumBarunGothic" font-size="14.00">AI 캡션 3,000 + BGE 1,024d</text>
<text text-anchor="start" x="108.5" y="-387.8" font-family="NanumBarunGothic" font-size="14.00">전체 프레임 143,830 + CLIP 512d</text>
<polygon fill="#fff3d6" stroke="transparent" points="1.5,-330 1.5,-376 100.5,-376 100.5,-330 1.5,-330"/>
<polygon fill="none" stroke="#526476" points="1.5,-330 1.5,-376 100.5,-376 100.5,-330 1.5,-330"/>
<text text-anchor="start" x="38" y="-350.3" font-family="NanumBarunGothic" font-weight="bold" font-size="14.00">사용</text>
<polygon fill="none" stroke="#526476" points="100.5,-330 100.5,-376 356.5,-376 356.5,-330 100.5,-330"/>
<text text-anchor="start" x="108.5" y="-356.8" font-family="NanumBarunGothic" font-size="14.00">tri&#45;source 검색 85질의</text>
<text text-anchor="start" x="108.5" y="-341.8" font-family="NanumBarunGothic" font-size="14.00">filtered&#45;ANN/저장, 지각 한계 파일럿</text>
<polygon fill="none" stroke="#526476" points="0,-329 0,-529 357,-529 357,-329 0,-329"/>
</g>
<!-- dsin -->
<g id="node2" class="node">
<title>dsin</title>
<polygon fill="#243b53" stroke="transparent" points="381.5,-483 381.5,-528 736.5,-528 736.5,-483 381.5,-483"/>
<polygon fill="none" stroke="#526476" points="381.5,-483 381.5,-528 736.5,-528 736.5,-483 381.5,-483"/>
<text text-anchor="start" x="391.5" y="-507" font-family="NanumBarunGothic" font-weight="bold" font-size="15.00" fill="white">AI Hub 시내도로</text>
<text text-anchor="start" x="391.5" y="-496" font-family="NanumBarunGothic" font-size="10.00" fill="#d9e2ec">실 프레임 색인 + 합성 규모 확장</text>
<polygon fill="#e8f3fa" stroke="transparent" points="381.5,-437 381.5,-483 471.5,-483 471.5,-437 381.5,-437"/>
<polygon fill="none" stroke="#526476" points="381.5,-437 381.5,-483 471.5,-483 471.5,-437 381.5,-437"/>
<text text-anchor="start" x="413.5" y="-457.3" font-family="NanumBarunGothic" font-weight="bold" font-size="14.00">원본</text>
<polygon fill="none" stroke="#526476" points="471.5,-437 471.5,-483 736.5,-483 736.5,-437 471.5,-437"/>
<text text-anchor="start" x="479.5" y="-463.8" font-family="NanumBarunGothic" font-size="14.00">320G JPG ZIP</text>
<text text-anchor="start" x="479.5" y="-448.8" font-family="NanumBarunGothic" font-size="14.00">위치·카메라·파일시각 포함 CCTV 프레임</text>
<polygon fill="#f5f7fa" stroke="transparent" points="381.5,-376 381.5,-437 471.5,-437 471.5,-376 381.5,-376"/>
<polygon fill="none" stroke="#526476" points="381.5,-376 381.5,-437 471.5,-437 471.5,-376 381.5,-376"/>
<text text-anchor="start" x="413.5" y="-403.8" font-family="NanumBarunGothic" font-weight="bold" font-size="14.00">저장</text>
<polygon fill="none" stroke="#526476" points="471.5,-376 471.5,-437 736.5,-437 736.5,-376 471.5,-376"/>
<text text-anchor="start" x="479.5" y="-417.8" font-family="NanumBarunGothic" font-size="14.00">real 132,521 x 512 CLIP</text>
<text text-anchor="start" x="479.5" y="-402.8" font-family="NanumBarunGothic" font-size="14.00">frame_index.parquet</text>
<text text-anchor="start" x="479.5" y="-387.8" font-family="NanumBarunGothic" font-size="14.00">synthetic 1,000,000 x 512</text>
<polygon fill="#fff3d6" stroke="transparent" points="381.5,-330 381.5,-376 471.5,-376 471.5,-330 381.5,-330"/>
<polygon fill="none" stroke="#526476" points="381.5,-330 381.5,-376 471.5,-376 471.5,-330 381.5,-330"/>
<text text-anchor="start" x="413.5" y="-350.3" font-family="NanumBarunGothic" font-weight="bold" font-size="14.00">사용</text>
<polygon fill="none" stroke="#526476" points="471.5,-330 471.5,-376 736.5,-376 736.5,-330 471.5,-330"/>
<text text-anchor="start" x="479.5" y="-356.8" font-family="NanumBarunGothic" font-size="14.00">실 predicate filtered&#45;ANN</text>
<text text-anchor="start" x="479.5" y="-341.8" font-family="NanumBarunGothic" font-size="14.00">FAISS/pgvector 규모·부분색인</text>
<polygon fill="none" stroke="#526476" points="380,-329 380,-529 737,-529 737,-329 380,-329"/>
</g>
<!-- dmeva -->
<g id="node3" class="node">
<title>dmeva</title>
<polygon fill="#243b53" stroke="transparent" points="761.5,-483 761.5,-528 1116.5,-528 1116.5,-483 761.5,-483"/>
<polygon fill="none" stroke="#526476" points="761.5,-483 761.5,-528 1116.5,-528 1116.5,-483 761.5,-483"/>
<text text-anchor="start" x="771.5" y="-507" font-family="NanumBarunGothic" font-weight="bold" font-size="15.00" fill="white">MEVA</text>
<text text-anchor="start" x="771.5" y="-496" font-family="NanumBarunGothic" font-size="10.00" fill="#d9e2ec">검색 외적 타당성 + 저장 단위</text>
<polygon fill="#e8f3fa" stroke="transparent" points="761.5,-437 761.5,-483 878.5,-483 878.5,-437 761.5,-437"/>
<polygon fill="none" stroke="#526476" points="761.5,-437 761.5,-483 878.5,-483 878.5,-437 761.5,-437"/>
<text text-anchor="start" x="807" y="-457.3" font-family="NanumBarunGothic" font-weight="bold" font-size="14.00">원본</text>
<polygon fill="none" stroke="#526476" points="878.5,-437 878.5,-483 1116.5,-483 1116.5,-437 878.5,-437"/>
<text text-anchor="start" x="886.5" y="-463.8" font-family="NanumBarunGothic" font-size="14.00">로컬 KPF/DIVA JSON 7.6G</text>
<text text-anchor="start" x="886.5" y="-448.8" font-family="NanumBarunGothic" font-size="14.00">S3 AVI는 일시 다운로드 후 삭제</text>
<polygon fill="#f5f7fa" stroke="transparent" points="761.5,-376 761.5,-437 878.5,-437 878.5,-376 761.5,-376"/>
<polygon fill="none" stroke="#526476" points="761.5,-376 761.5,-437 878.5,-437 878.5,-376 761.5,-376"/>
<text text-anchor="start" x="807" y="-403.8" font-family="NanumBarunGothic" font-weight="bold" font-size="14.00">저장</text>
<polygon fill="none" stroke="#526476" points="878.5,-376 878.5,-437 1116.5,-437 1116.5,-376 878.5,-376"/>
<text text-anchor="start" x="886.5" y="-417.8" font-family="NanumBarunGothic" font-size="14.00">중간프레임 JPG 985</text>
<text text-anchor="start" x="886.5" y="-402.8" font-family="NanumBarunGothic" font-size="14.00">AI 캡션 985 + BGE/CLIP</text>
<text text-anchor="start" x="901.5" y="-387.8" font-family="NanumBarunGothic" font-size="14.00">canonical 193질의</text>
<polygon fill="#fff3d6" stroke="transparent" points="761.5,-330 761.5,-376 878.5,-376 878.5,-330 761.5,-330"/>
<polygon fill="none" stroke="#526476" points="761.5,-330 761.5,-376 878.5,-376 878.5,-330 761.5,-330"/>
<text text-anchor="start" x="807" y="-350.3" font-family="NanumBarunGothic" font-weight="bold" font-size="14.00">사용</text>
<polygon fill="none" stroke="#526476" points="878.5,-330 878.5,-376 1116.5,-376 1116.5,-330 878.5,-330"/>
<text text-anchor="start" x="886.5" y="-356.8" font-family="NanumBarunGothic" font-size="14.00">활동 검색 외적 타당성</text>
<text text-anchor="start" x="886.5" y="-341.8" font-family="NanumBarunGothic" font-size="14.00">프레임/벡터 저장 단위 비교</text>
<polygon fill="none" stroke="#526476" points="760,-329 760,-529 1117,-529 1117,-329 760,-329"/>
</g>
<!-- dmiris -->
<g id="node4" class="node">
<title>dmiris</title>
<polygon fill="#243b53" stroke="transparent" points="1141.5,-483 1141.5,-528 1496.5,-528 1496.5,-483 1141.5,-483"/>
<polygon fill="none" stroke="#526476" points="1141.5,-483 1141.5,-528 1496.5,-528 1496.5,-483 1141.5,-483"/>
<text text-anchor="start" x="1151.5" y="-507" font-family="NanumBarunGothic" font-weight="bold" font-size="15.00" fill="white">MIRIS</text>
<text text-anchor="start" x="1151.5" y="-496" font-family="NanumBarunGothic" font-size="10.00" fill="#d9e2ec">부분색인·hot/cold 외적 타당성</text>
<polygon fill="#e8f3fa" stroke="transparent" points="1141.5,-437 1141.5,-483 1243.5,-483 1243.5,-437 1141.5,-437"/>
<polygon fill="none" stroke="#526476" points="1141.5,-437 1141.5,-483 1243.5,-483 1243.5,-437 1141.5,-437"/>
<text text-anchor="start" x="1179.5" y="-457.3" font-family="NanumBarunGothic" font-weight="bold" font-size="14.00">원본</text>
<polygon fill="none" stroke="#526476" points="1243.5,-437 1243.5,-483 1496.5,-483 1496.5,-437 1243.5,-437"/>
<text text-anchor="start" x="1251.5" y="-463.8" font-family="NanumBarunGothic" font-size="14.00">14G MP4 + YOLOv3 JSON</text>
<text text-anchor="start" x="1251.5" y="-448.8" font-family="NanumBarunGothic" font-size="14.00">Warsaw/Shibuya 12개 고정 카메라</text>
<polygon fill="#f5f7fa" stroke="transparent" points="1141.5,-376 1141.5,-437 1243.5,-437 1243.5,-376 1141.5,-376"/>
<polygon fill="none" stroke="#526476" points="1141.5,-376 1141.5,-437 1243.5,-437 1243.5,-376 1141.5,-376"/>
<text text-anchor="start" x="1179.5" y="-403.8" font-family="NanumBarunGothic" font-weight="bold" font-size="14.00">저장</text>
<polygon fill="none" stroke="#526476" points="1243.5,-376 1243.5,-437 1496.5,-437 1496.5,-376 1243.5,-376"/>
<text text-anchor="start" x="1251.5" y="-417.8" font-family="NanumBarunGothic" font-size="14.00">hold&#45;out NPY 1,000 x 512</text>
<text text-anchor="start" x="1251.5" y="-402.8" font-family="NanumBarunGothic" font-size="14.00">PostgreSQL 59,019행</text>
<text text-anchor="start" x="1261" y="-387.8" font-family="NanumBarunGothic" font-size="14.00">scene/video/nobj/tseg</text>
<polygon fill="#fff3d6" stroke="transparent" points="1141.5,-330 1141.5,-376 1243.5,-376 1243.5,-330 1141.5,-330"/>
<polygon fill="none" stroke="#526476" points="1141.5,-330 1141.5,-376 1243.5,-376 1243.5,-330 1141.5,-330"/>
<text text-anchor="start" x="1179.5" y="-350.3" font-family="NanumBarunGothic" font-weight="bold" font-size="14.00">사용</text>
<polygon fill="none" stroke="#526476" points="1243.5,-330 1243.5,-376 1496.5,-376 1496.5,-330 1243.5,-330"/>
<text text-anchor="start" x="1251.5" y="-356.8" font-family="NanumBarunGothic" font-size="14.00">공간·내용 predicate filtered&#45;ANN</text>
<text text-anchor="start" x="1277.5" y="-341.8" font-family="NanumBarunGothic" font-size="14.00">부분색인 및 hot/cold 정책</text>
<polygon fill="none" stroke="#526476" points="1140,-329 1140,-529 1497,-529 1497,-329 1140,-329"/>
</g>
<!-- dvru -->
<g id="node5" class="node">
<title>dvru</title>
<polygon fill="#243b53" stroke="transparent" points="1.5,-234 1.5,-279 356.5,-279 356.5,-234 1.5,-234"/>
<polygon fill="none" stroke="#526476" points="1.5,-234 1.5,-279 356.5,-279 356.5,-234 1.5,-234"/>
<text text-anchor="start" x="11.5" y="-258" font-family="NanumBarunGothic" font-weight="bold" font-size="15.00" fill="white">VRU&#45;Accident</text>
<text text-anchor="start" x="11.5" y="-247" font-family="NanumBarunGothic" font-size="10.00" fill="#d9e2ec">순환성 수리 대조 + 답변 앵커</text>
<polygon fill="#e8f3fa" stroke="transparent" points="1.5,-188 1.5,-234 105.5,-234 105.5,-188 1.5,-188"/>
<polygon fill="none" stroke="#526476" points="1.5,-188 1.5,-234 105.5,-234 105.5,-188 1.5,-188"/>
<text text-anchor="start" x="40.5" y="-208.3" font-family="NanumBarunGothic" font-weight="bold" font-size="14.00">원본</text>
<polygon fill="none" stroke="#526476" points="105.5,-188 105.5,-234 356.5,-234 356.5,-188 105.5,-188"/>
<text text-anchor="start" x="113.5" y="-214.8" font-family="NanumBarunGothic" font-size="14.00">MP4 1,000 (3.0G)</text>
<text text-anchor="start" x="113.5" y="-199.8" font-family="NanumBarunGothic" font-size="14.00">외부 HF dense caption/VQA 5.8G</text>
<polygon fill="#f5f7fa" stroke="transparent" points="1.5,-127 1.5,-188 105.5,-188 105.5,-127 1.5,-127"/>
<polygon fill="none" stroke="#526476" points="1.5,-127 1.5,-188 105.5,-188 105.5,-127 1.5,-127"/>
<text text-anchor="start" x="40.5" y="-154.8" font-family="NanumBarunGothic" font-weight="bold" font-size="14.00">저장</text>
<polygon fill="none" stroke="#526476" points="105.5,-127 105.5,-188 356.5,-188 356.5,-127 105.5,-127"/>
<text text-anchor="start" x="113.5" y="-168.8" font-family="NanumBarunGothic" font-size="14.00">수리판 6.1M</text>
<text text-anchor="start" x="113.5" y="-153.8" font-family="NanumBarunGothic" font-size="14.00">외부 dense caption 1,000문서</text>
<text text-anchor="start" x="131.5" y="-138.8" font-family="NanumBarunGothic" font-size="14.00">canonical 85질의 + BGE</text>
<polygon fill="#fff3d6" stroke="transparent" points="1.5,-81 1.5,-127 105.5,-127 105.5,-81 1.5,-81"/>
<polygon fill="none" stroke="#526476" points="1.5,-81 1.5,-127 105.5,-127 105.5,-81 1.5,-81"/>
<text text-anchor="start" x="40.5" y="-101.3" font-family="NanumBarunGothic" font-weight="bold" font-size="14.00">사용</text>
<polygon fill="none" stroke="#526476" points="105.5,-81 105.5,-127 356.5,-127 356.5,-81 105.5,-81"/>
<text text-anchor="start" x="113.5" y="-107.8" font-family="NanumBarunGothic" font-size="14.00">수리 전후 순환 붕괴</text>
<text text-anchor="start" x="113.5" y="-92.8" font-family="NanumBarunGothic" font-size="14.00">고정 LLM 증거 사다리</text>
<polygon fill="none" stroke="#526476" points="0,-80 0,-280 357,-280 357,-80 0,-80"/>
</g>
<!-- dint -->
<g id="node6" class="node">
<title>dint</title>
<polygon fill="#243b53" stroke="transparent" points="381.5,-234 381.5,-279 736.5,-279 736.5,-234 381.5,-234"/>
<polygon fill="none" stroke="#526476" points="381.5,-234 381.5,-279 736.5,-279 736.5,-234 381.5,-234"/>
<text text-anchor="start" x="391.5" y="-258" font-family="NanumBarunGothic" font-weight="bold" font-size="15.00" fill="white">AI Hub 지능형 관제</text>
<text text-anchor="start" x="411.5" y="-247" font-family="NanumBarunGothic" font-size="10.00" fill="#d9e2ec">국내 소형 수리 대조</text>
<polygon fill="#e8f3fa" stroke="transparent" points="381.5,-188 381.5,-234 496.5,-234 496.5,-188 381.5,-188"/>
<polygon fill="none" stroke="#526476" points="381.5,-188 381.5,-234 496.5,-234 496.5,-188 381.5,-188"/>
<text text-anchor="start" x="426" y="-208.3" font-family="NanumBarunGothic" font-weight="bold" font-size="14.00">원본</text>
<polygon fill="none" stroke="#526476" points="496.5,-188 496.5,-234 736.5,-234 736.5,-188 496.5,-188"/>
<text text-anchor="start" x="504.5" y="-214.8" font-family="NanumBarunGothic" font-size="14.00">staging MP4 269 + JSON 269</text>
<text text-anchor="start" x="520.5" y="-199.8" font-family="NanumBarunGothic" font-size="14.00">13G, media&#45;label 누락 0</text>
<polygon fill="#f5f7fa" stroke="transparent" points="381.5,-127 381.5,-188 496.5,-188 496.5,-127 381.5,-127"/>
<polygon fill="none" stroke="#526476" points="381.5,-127 381.5,-188 496.5,-188 496.5,-127 381.5,-127"/>
<text text-anchor="start" x="426" y="-154.8" font-family="NanumBarunGothic" font-weight="bold" font-size="14.00">저장</text>
<polygon fill="none" stroke="#526476" points="496.5,-127 496.5,-188 736.5,-188 736.5,-127 496.5,-127"/>
<text text-anchor="start" x="504.5" y="-168.8" font-family="NanumBarunGothic" font-size="14.00">외부 event_caption 269문서</text>
<text text-anchor="start" x="504.5" y="-153.8" font-family="NanumBarunGothic" font-size="14.00">수리판 1.5M</text>
<text text-anchor="start" x="516.5" y="-138.8" font-family="NanumBarunGothic" font-size="14.00">canonical 18질의 + BGE</text>
<polygon fill="#fff3d6" stroke="transparent" points="381.5,-81 381.5,-127 496.5,-127 496.5,-81 381.5,-81"/>
<polygon fill="none" stroke="#526476" points="381.5,-81 381.5,-127 496.5,-127 496.5,-81 381.5,-81"/>
<text text-anchor="start" x="426" y="-101.3" font-family="NanumBarunGothic" font-weight="bold" font-size="14.00">사용</text>
<polygon fill="none" stroke="#526476" points="496.5,-81 496.5,-127 736.5,-127 736.5,-81 496.5,-81"/>
<text text-anchor="start" x="504.5" y="-107.8" font-family="NanumBarunGothic" font-size="14.00">단일 JSON 생산자 한계</text>
<text text-anchor="start" x="504.5" y="-92.8" font-family="NanumBarunGothic" font-size="14.00">수리 후 국내 CCTV 이식성</text>
<polygon fill="none" stroke="#526476" points="380,-80 380,-280 737,-280 737,-80 380,-80"/>
</g>
<!-- duca -->
<g id="node7" class="node">
<title>duca</title>
<polygon fill="#243b53" stroke="transparent" points="761.5,-234 761.5,-279 1116.5,-279 1116.5,-234 761.5,-234"/>
<polygon fill="none" stroke="#526476" points="761.5,-234 761.5,-279 1116.5,-279 1116.5,-234 761.5,-234"/>
<text text-anchor="start" x="771.5" y="-258" font-family="NanumBarunGothic" font-weight="bold" font-size="15.00" fill="white">UCA/UCF&#45;Crime</text>
<text text-anchor="start" x="778" y="-247" font-family="NanumBarunGothic" font-size="10.00" fill="#d9e2ec">2.5채널 검색 외적 타당성</text>
<polygon fill="#e8f3fa" stroke="transparent" points="761.5,-188 761.5,-234 837.5,-234 837.5,-188 761.5,-188"/>
<polygon fill="none" stroke="#526476" points="761.5,-188 761.5,-234 837.5,-234 837.5,-188 761.5,-188"/>
<text text-anchor="start" x="786.5" y="-208.3" font-family="NanumBarunGothic" font-weight="bold" font-size="14.00">원본</text>
<polygon fill="none" stroke="#526476" points="837.5,-188 837.5,-234 1116.5,-234 1116.5,-188 837.5,-188"/>
<text text-anchor="start" x="845.5" y="-214.8" font-family="NanumBarunGothic" font-size="14.00">raw MP4 1,950 / UCA 주석 대상 1,854</text>
<text text-anchor="start" x="845.5" y="-199.8" font-family="NanumBarunGothic" font-size="14.00">문장/구간 23,542, 로컬 194G, 총 110.7시간</text>
<polygon fill="#f5f7fa" stroke="transparent" points="761.5,-127 761.5,-188 837.5,-188 837.5,-127 761.5,-127"/>
<polygon fill="none" stroke="#526476" points="761.5,-127 761.5,-188 837.5,-188 837.5,-127 761.5,-127"/>
<text text-anchor="start" x="786.5" y="-154.8" font-family="NanumBarunGothic" font-weight="bold" font-size="14.00">저장</text>
<polygon fill="none" stroke="#526476" points="837.5,-127 837.5,-188 1116.5,-188 1116.5,-127 837.5,-127"/>
<text text-anchor="start" x="845.5" y="-168.8" font-family="NanumBarunGothic" font-size="14.00">중간프레임 JPG + AI 캡션 6,432</text>
<text text-anchor="start" x="845.5" y="-153.8" font-family="NanumBarunGothic" font-size="14.00">processed 176M</text>
<text text-anchor="start" x="861" y="-138.8" font-family="NanumBarunGothic" font-size="14.00">canonical 135질의 + BGE</text>
<polygon fill="#fff3d6" stroke="transparent" points="761.5,-81 761.5,-127 837.5,-127 837.5,-81 761.5,-81"/>
<polygon fill="none" stroke="#526476" points="761.5,-81 761.5,-127 837.5,-127 837.5,-81 761.5,-81"/>
<text text-anchor="start" x="786.5" y="-101.3" font-family="NanumBarunGothic" font-weight="bold" font-size="14.00">사용</text>
<polygon fill="none" stroke="#526476" points="837.5,-81 837.5,-127 1116.5,-127 1116.5,-81 837.5,-81"/>
<text text-anchor="start" x="845.5" y="-107.8" font-family="NanumBarunGothic" font-size="14.00">사건 구간 기반 검색</text>
<text text-anchor="start" x="845.5" y="-92.8" font-family="NanumBarunGothic" font-size="14.00">센서 없는 2.5채널 대조</text>
<polygon fill="none" stroke="#526476" points="760,-80 760,-280 1117,-280 1117,-80 760,-80"/>
</g>
<!-- dmulti -->
<g id="node8" class="node">
<title>dmulti</title>
<polygon fill="#243b53" stroke="transparent" points="1141.5,-234 1141.5,-279 1496.5,-279 1496.5,-234 1141.5,-234"/>
<polygon fill="none" stroke="#526476" points="1141.5,-234 1141.5,-279 1496.5,-279 1496.5,-234 1141.5,-234"/>
<text text-anchor="start" x="1151.5" y="-258" font-family="NanumBarunGothic" font-weight="bold" font-size="15.00" fill="white">AI Hub 다각도 CCTV</text>
<text text-anchor="start" x="1165.5" y="-247" font-family="NanumBarunGothic" font-size="10.00" fill="#d9e2ec">다중 시점 증거 선택·답변</text>
<polygon fill="#e8f3fa" stroke="transparent" points="1141.5,-188 1141.5,-234 1225.5,-234 1225.5,-188 1141.5,-188"/>
<polygon fill="none" stroke="#526476" points="1141.5,-188 1141.5,-234 1225.5,-234 1225.5,-188 1141.5,-188"/>
<text text-anchor="start" x="1170.5" y="-208.3" font-family="NanumBarunGothic" font-weight="bold" font-size="14.00">원본</text>
<polygon fill="none" stroke="#526476" points="1225.5,-188 1225.5,-234 1496.5,-234 1496.5,-188 1225.5,-188"/>
<text text-anchor="start" x="1233.5" y="-214.8" font-family="NanumBarunGothic" font-size="14.00">483G ZIP</text>
<text text-anchor="start" x="1233.5" y="-199.8" font-family="NanumBarunGothic" font-size="14.00">사건 4,500 + MP4 9,000(c1/c2) + JSON</text>
<polygon fill="#f5f7fa" stroke="transparent" points="1141.5,-127 1141.5,-188 1225.5,-188 1225.5,-127 1141.5,-127"/>
<polygon fill="none" stroke="#526476" points="1141.5,-127 1141.5,-188 1225.5,-188 1225.5,-127 1141.5,-127"/>
<text text-anchor="start" x="1170.5" y="-154.8" font-family="NanumBarunGothic" font-weight="bold" font-size="14.00">저장</text>
<polygon fill="none" stroke="#526476" points="1225.5,-127 1225.5,-188 1496.5,-188 1496.5,-127 1225.5,-127"/>
<text text-anchor="start" x="1233.5" y="-168.8" font-family="NanumBarunGothic" font-size="14.00">canonical 426M</text>
<text text-anchor="start" x="1233.5" y="-153.8" font-family="NanumBarunGothic" font-size="14.00">bbox 비대칭 400사건</text>
<text text-anchor="start" x="1233.5" y="-138.8" font-family="NanumBarunGothic" font-size="14.00">evidence JPG 2,400 + VLM 답변</text>
<polygon fill="#fff3d6" stroke="transparent" points="1141.5,-81 1141.5,-127 1225.5,-127 1225.5,-81 1141.5,-81"/>
<polygon fill="none" stroke="#526476" points="1141.5,-81 1141.5,-127 1225.5,-127 1225.5,-81 1141.5,-81"/>
<text text-anchor="start" x="1170.5" y="-101.3" font-family="NanumBarunGothic" font-weight="bold" font-size="14.00">사용</text>
<polygon fill="none" stroke="#526476" points="1225.5,-81 1225.5,-127 1496.5,-127 1496.5,-81 1225.5,-81"/>
<text text-anchor="start" x="1233.5" y="-107.8" font-family="NanumBarunGothic" font-size="14.00">worse/better/both 짝지은 답변</text>
<text text-anchor="start" x="1252" y="-92.8" font-family="NanumBarunGothic" font-size="14.00">검색 문서가 아닌 평가 결과</text>
<polygon fill="none" stroke="#526476" points="1140,-80 1140,-280 1497,-280 1497,-80 1140,-80"/>
</g>
<!-- legend -->
<g id="node9" class="node">
<title>legend</title>
<polygon fill="#e8f3fa" stroke="transparent" points="922.5,0.5 922.5,-30.5 1054.5,-30.5 1054.5,0.5 922.5,0.5"/>
<polygon fill="none" stroke="#a7b3c0" points="922.5,0.5 922.5,-30.5 1054.5,-30.5 1054.5,0.5 922.5,0.5"/>
<text text-anchor="start" x="930.5" y="-11.3" font-family="NanumBarunGothic" font-size="14.00">원본: 외부 배포 파일</text>
<polygon fill="#f5f7fa" stroke="transparent" points="1054.5,0.5 1054.5,-30.5 1265.5,-30.5 1265.5,0.5 1054.5,0.5"/>
<polygon fill="none" stroke="#a7b3c0" points="1054.5,0.5 1054.5,-30.5 1265.5,-30.5 1265.5,0.5 1054.5,0.5"/>
<text text-anchor="start" x="1062.5" y="-11.3" font-family="NanumBarunGothic" font-size="14.00">저장: 현재 materialized 파일/DB</text>
<polygon fill="#fff3d6" stroke="transparent" points="1265.5,0.5 1265.5,-30.5 1397.5,-30.5 1397.5,0.5 1265.5,0.5"/>
<polygon fill="none" stroke="#a7b3c0" points="1265.5,0.5 1265.5,-30.5 1397.5,-30.5 1397.5,0.5 1265.5,0.5"/>
<text text-anchor="start" x="1273.5" y="-11.3" font-family="NanumBarunGothic" font-size="14.00">사용: 논문 평가 입력</text>
<polygon fill="none" stroke="#a7b3c0" points="1397.5,0.5 1397.5,-30.5 1714.5,-30.5 1714.5,0.5 1397.5,0.5"/>
<text text-anchor="start" x="1405.5" y="-11.3" font-family="NanumBarunGothic" font-size="14.00">크기는 du &#45;sh, 행·shape는 parquet/NPY/DB 실측</text>
</g>
</g>
</svg>
